<?xml version="1.0" encoding="UTF-8" standalone="no"?>
<!-- Uploaded to: SVG Repo, www.svgrepo.com, Generator: SVG Repo Mixer Tools -->

<svg
   fill="#000000"
   width="10.992253"
   height="10.982985"
   viewBox="0 0 0.43969013 0.43931938"
   version="1.1"
   id="svg185"
   sodipodi:docname="icon-changelink.svg"
   inkscape:version="1.2.2 (732a01da63, 2022-12-09)"
   xmlns:inkscape="http://www.inkscape.org/namespaces/inkscape"
   xmlns:sodipodi="http://sodipodi.sourceforge.net/DTD/sodipodi-0.dtd"
   xmlns="http://www.w3.org/2000/svg"
   xmlns:svg="http://www.w3.org/2000/svg">
  <defs
     id="defs189" />
  <sodipodi:namedview
     id="namedview187"
     pagecolor="#ffffff"
     bordercolor="#666666"
     borderopacity="1.0"
     inkscape:showpageshadow="2"
     inkscape:pageopacity="0.0"
     inkscape:pagecheckerboard="0"
     inkscape:deskcolor="#d1d1d1"
     showgrid="false"
     inkscape:zoom="33.48"
     inkscape:cx="9.4683393"
     inkscape:cy="3.3900836"
     inkscape:window-width="1920"
     inkscape:window-height="1018"
     inkscape:window-x="-6"
     inkscape:window-y="-6"
     inkscape:window-maximized="1"
     inkscape:current-layer="svg185" />
  <path
     d="M 0.41356177,0.021567 C 0.39862177,0.007253 0.38215177,0 0.36456177,0 c -0.0275,0 -0.04758,0.017769 -0.05306,0.023212 -0.0077,0.00765 -0.271277,0.2713036 -0.271277,0.2713036 -0.0017,0.00173 -0.003,0.00389 -0.0036,0.00625 -0.0059,0.021964 -0.0357199955,0.1194186 -0.0360199955,0.1204058 -0.0015,0.00499 -1.64e-4,0.010434 0.003499996,0.014108 0.0026,0.00263 0.0062,0.00404 0.0098,0.00404 0.0014,0 0.0029,-2.194e-4 0.0043,-6.718e-4 0.001,-3.291e-4 0.101595,-0.032837 0.118157,-0.037786 0.0022,-6.581e-4 0.0042,-0.00184 0.0058,-0.00344 0.01046,-0.010338 0.256263,-0.2534115 0.272579,-0.2702617 0.01688,-0.017385 0.02527,-0.03551 0.02494,-0.053814 -3.43e-4,-0.018084 -0.0091,-0.035496 -0.02606,-0.051771 z m -0.106435,0.045491 c 0.007,0.00169 0.02346,0.00723 0.04028,0.024199 0.017,0.017152 0.02159,0.036758 0.02246,0.041228 -0.05391,0.053635 -0.178003,0.1764132 -0.226922,0.2247976 -0.0045,-0.010516 -0.01182,-0.023198 -0.02357,-0.03503 -0.01434,-0.014451 -0.02894,-0.022609 -0.0402,-0.027202 0.04841,-0.048426 0.17485,-0.1749051 0.227937,-0.2279785 z m -0.246556,0.2511218 c 0.0075,0.002 0.02318,0.00781 0.03913,0.023884 0.01228,0.012394 0.01808,0.02605 0.02069,0.034386 -0.01906,0.00613 -0.06079,0.020525 -0.08729,0.02908 0.0079,-0.025858 0.02113,-0.066112 0.02748,-0.08735 z m 0.334207,-0.2106209 c -5.62e-4,5.758e-4 -0.0015,0.00151 -0.0026,0.00263 -0.0043,-0.01116 -0.01193,-0.025502 -0.0251,-0.038773 -0.01345,-0.01356 -0.02709,-0.021553 -0.03802,-0.026283 9.32e-4,-9.186e-4 0.0016,-0.00165 0.0019,-0.00192 0.0016,-0.00155 0.01581,-0.015164 0.03355,-0.015164 0.01021,0 0.02025,0.00466 0.02982,0.013848 0.01135,0.0109 0.01722,0.021649 0.01741,0.031959 1.92e-4,0.01053 -0.0055,0.021868 -0.017,0.033701 z"
     id="path183"
     style="stroke-width:0.0137105;fill:#ffffff" />
</svg>
