<?xml version="1.0" encoding="UTF-8" standalone="no"?>
<!-- Uploaded to: SVG Repo, www.svgrepo.com, Generator: SVG Repo Mixer Tools -->

<svg
   fill="#000000"
   width="13"
   height="13"
   viewBox="0 0 0.52 0.52000001"
   version="1.1"
   id="svg293"
   sodipodi:docname="icon-viewlink.svg"
   inkscape:version="1.2.2 (732a01da63, 2022-12-09)"
   xmlns:inkscape="http://www.inkscape.org/namespaces/inkscape"
   xmlns:sodipodi="http://sodipodi.sourceforge.net/DTD/sodipodi-0.dtd"
   xmlns="http://www.w3.org/2000/svg"
   xmlns:svg="http://www.w3.org/2000/svg">
  <defs
     id="defs297" />
  <sodipodi:namedview
     id="namedview295"
     pagecolor="#ffffff"
     bordercolor="#666666"
     borderopacity="1.0"
     inkscape:showpageshadow="2"
     inkscape:pageopacity="0.0"
     inkscape:pagecheckerboard="0"
     inkscape:deskcolor="#d1d1d1"
     showgrid="false"
     inkscape:zoom="5.9184838"
     inkscape:cx="77.638128"
     inkscape:cy="-29.31494"
     inkscape:window-width="1920"
     inkscape:window-height="1018"
     inkscape:window-x="-6"
     inkscape:window-y="-6"
     inkscape:window-maximized="1"
     inkscape:current-layer="svg293" />
  <path
     d="m 0.26176043,0.1633497 c -0.0537539,0 -0.0973509,0.043597 -0.0973509,0.097351 0,0.053754 0.043597,0.097351 0.0973509,0.097351 0.0537539,0 0.0973509,-0.043581 0.0973509,-0.097351 0,-0.05377 -0.0435808,-0.097351 -0.0973509,-0.097351 z m 0,0.1622516 c -0.0357927,0 -0.065647,-0.029822 -0.065647,-0.065615 0,-0.035793 0.0291079,-0.064901 0.0649006,-0.064901 0.0357927,0 0.0649006,0.029108 0.0649006,0.064901 0,0.035793 -0.0283616,0.065615 -0.0641542,0.065615 z m 0.25768791,-0.069379 c -1.947e-4,-8.113e-4 -9.735e-5,-0.00169 -3.4072e-4,-0.00248 -9.735e-5,-3.408e-4 -3.2451e-4,-5.355e-4 -4.3808e-4,-8.275e-4 -1.7848e-4,-4.543e-4 -1.298e-4,-0.00101 -3.7318e-4,-0.00144 C 0.47109738,0.143409 0.36939811,0.0812342 0.26101407,0.0812342 c -0.10838403,0 -0.21212768,0.062077 -0.25934288,0.170137 -1.947e-4,4.543e-4 -1.6225e-4,9.248e-4 -3.4073e-4,0.00144 -1.1357e-4,3.245e-4 -3.4073e-4,4.868e-4 -4.543e-4,7.95e-4 -2.4338e-4,8.113e-4 -1.4603e-4,0.00167 -3.0828e-4,0.0025 C 2.7583e-4,0.2575662 0,0.2589962 0,0.2604662 c 0,0.00148 2.7583e-4,0.00287 5.6788e-4,0.00435 1.6225e-4,8.113e-4 4.868e-5,0.0017 3.0828e-4,0.00247 9.735e-5,3.731e-4 3.4073e-4,5.192e-4 4.543e-4,8.437e-4 1.6225e-4,4.38e-4 1.298e-4,9.897e-4 3.4073e-4,0.00144 0.0472152,0.1080271 0.14995289,0.1691959 0.25833692,0.1691959 0.10838404,0 0.2111055,-0.061039 0.25830447,-0.1690985 2.4338e-4,-4.706e-4 1.9471e-4,-9.411e-4 3.7318e-4,-0.00146 1.1358e-4,-2.758e-4 3.2451e-4,-4.868e-4 4.2186e-4,-8.113e-4 2.4337e-4,-7.95e-4 1.7847e-4,-0.00165 3.4072e-4,-0.0025 C 0.5197404,0.2634427 0.52,0.2620311 0.52,0.2605222 c 0,-0.00143 -2.7583e-4,-0.00284 -5.6788e-4,-0.00432 z M 0.26000811,0.4063214 c -0.0919155,0 -0.18240319,-0.048448 -0.22686012,-0.1458641 0.04403507,-0.097075 0.13572343,-0.146789 0.22786608,-0.146789 0.0921264,0 0.18177042,0.049762 0.22582171,0.1468863 -0.0440188,0.097059 -0.13468501,0.1457668 -0.22684389,0.1457668 z"
     id="path291"
     style="fill:#666;stroke-width:0.0162252" />
</svg>
